<?xml version="1.0" encoding="UTF-8" standalone="no"?>
<svg
   aria-hidden="true"
   focusable="false"
   data-prefix="fas"
   data-icon="dog"
   class="svg-inline--fa fa-dog"
   role="img"
   viewBox="0 0 576 512"
   version="1.1"
   id="svg4"
   sodipodi:docname="dog.svg"
   inkscape:version="1.1.1 (3bf5ae0d25, 2021-09-20)"
   xmlns:inkscape="http://www.inkscape.org/namespaces/inkscape"
   xmlns:sodipodi="http://sodipodi.sourceforge.net/DTD/sodipodi-0.dtd"
   xmlns="http://www.w3.org/2000/svg"
   xmlns:svg="http://www.w3.org/2000/svg">
  <defs
     id="defs8" />
  <sodipodi:namedview
     id="namedview6"
     pagecolor="#ffffff"
     bordercolor="#666666"
     borderopacity="1.0"
     inkscape:pageshadow="2"
     inkscape:pageopacity="0.0"
     inkscape:pagecheckerboard="0"
     showgrid="false"
     inkscape:zoom="1.2734375"
     inkscape:cx="287.80368"
     inkscape:cy="256.39264"
     inkscape:window-width="1600"
     inkscape:window-height="837"
     inkscape:window-x="-8"
     inkscape:window-y="-8"
     inkscape:window-maximized="1"
     inkscape:current-layer="svg4" />
  <path
     fill="currentColor"
     d="M297.1 224L448 277.5v218.5C448 504.9 440.9 512 432 512h-64c-8.875 0-16-7.125-16-15.1v-111.1H192v111.1C192 504.9 184.9 512 176 512h-64C103.1 512 96 504.9 96 496v-213.9C58.88 268.9 32 233.6 32 192c0-17.62 14.38-31.1 32-31.1s32 14.37 32 31.1s14.38 31.1 32 31.1H297.1zM544 112v31.1c0 35.37-28.62 63.1-64 63.1l-32 .0005v35.62l-128-45.75V48c0-14.25 17.25-21.37 27.25-11.25l27.38 27.25l53.63-.0008c10.88 0 23.75 7.875 28.62 17.75L464 96l64 .0006C536.9 96 544 103.1 544 112zM432 112c0-8.875-7.125-15.1-16-15.1s-16 7.124-16 15.1s7.125 15.1 16 15.1S432 120.9 432 112z"
     id="path2"
     style="fill:#0065fc;fill-opacity:1" />
</svg>
