<?xml version="1.0" encoding="UTF-8" standalone="no"?>
<svg
   xml:space="preserve"
   version="1.1"
   style="shape-rendering:geometricPrecision;text-rendering:geometricPrecision;image-rendering:optimizeQuality;"
   viewBox="0 0 316.4 343.075"
   x="0px"
   y="0px"
   fill-rule="evenodd"
   clip-rule="evenodd"
   id="svg18"
   sodipodi:docname="Family.svg"
   inkscape:version="1.1.1 (3bf5ae0d25, 2021-09-20)"
   xmlns:inkscape="http://www.inkscape.org/namespaces/inkscape"
   xmlns:sodipodi="http://sodipodi.sourceforge.net/DTD/sodipodi-0.dtd"
   xmlns="http://www.w3.org/2000/svg"
   xmlns:svg="http://www.w3.org/2000/svg"><sodipodi:namedview
     id="namedview20"
     pagecolor="#ffffff"
     bordercolor="#666666"
     borderopacity="1.0"
     inkscape:pageshadow="2"
     inkscape:pageopacity="0.0"
     inkscape:pagecheckerboard="0"
     showgrid="false"
     inkscape:zoom="1.900459"
     inkscape:cx="158.1197"
     inkscape:cy="124.44362"
     inkscape:window-width="1600"
     inkscape:window-height="837"
     inkscape:window-x="-8"
     inkscape:window-y="-8"
     inkscape:window-maximized="1"
     inkscape:current-layer="g12" /><defs
     id="defs4"><style
       type="text/css"
       id="style2">
   
    .fil0 {fill:black}
   
  </style></defs><g
     id="g12"><path
       class="fil0"
       d="m 141.32645,84.915527 h 33.76299 l 62.80489,-73.709501 c 13.09825,-15.37138 36.00432,4.11705 23.22397,19.408951 -14.24276,16.992765 -44.93784,51.916159 -64.14014,74.965273 -0.34971,73.91615 -0.55635,147.8323 -0.55635,221.74845 0,20.0289 -33.09536,20.013 -33.12716,0 l -0.14306,-86.80776 c 0,-11.33381 -9.69654,-11.96965 -9.71243,0 l -0.0955,86.80776 c -0.0159,20.013 -33.06357,20.0289 -33.14305,0 L 119.40595,105.58025 C 100.20364,82.531136 69.492669,47.623638 55.281694,30.614977 42.501353,15.323076 65.407411,-4.18125 78.505671,11.206026 L 141.29466,84.915527 Z M 158.22384,0.73059731 c 20.41041,0 36.95808,16.53178369 36.95808,36.94217869 0,20.410394 -16.54767,36.942178 -36.95808,36.942178 -20.3945,0 -36.94216,-16.531784 -36.94216,-36.942178 0,-20.410395 16.54766,-36.94217869 36.94216,-36.94217869 z"
       id="path8"
       style="stroke-width:1.5896;fill:#0065fc;fill-opacity:1" /></g></svg>
