<?xml version="1.0" encoding="UTF-8" standalone="no"?>
<svg
   data-name="Layer 1"
   viewBox="0 0 100 100"
   x="0px"
   y="0px"
   version="1.1"
   id="svg14"
   sodipodi:docname="iMark.svg"
   width="100"
   height="100"
   inkscape:version="1.1.1 (3bf5ae0d25, 2021-09-20)"
   xmlns:inkscape="http://www.inkscape.org/namespaces/inkscape"
   xmlns:sodipodi="http://sodipodi.sourceforge.net/DTD/sodipodi-0.dtd"
   xmlns="http://www.w3.org/2000/svg"
   xmlns:svg="http://www.w3.org/2000/svg"
   xmlns:rdf="http://www.w3.org/1999/02/22-rdf-syntax-ns#"
   xmlns:cc="http://creativecommons.org/ns#"
   xmlns:dc="http://purl.org/dc/elements/1.1/">
  <defs
     id="defs18" />
  <sodipodi:namedview
     id="namedview16"
     pagecolor="#ffffff"
     bordercolor="#666666"
     borderopacity="1.0"
     inkscape:pageshadow="2"
     inkscape:pageopacity="0.0"
     inkscape:pagecheckerboard="0"
     showgrid="false"
     inkscape:snap-grids="true"
     fit-margin-top="0"
     fit-margin-left="0"
     fit-margin-right="0"
     fit-margin-bottom="0"
     inkscape:zoom="6.4285973"
     inkscape:cx="43.944268"
     inkscape:cy="84.077439"
     inkscape:window-width="1600"
     inkscape:window-height="837"
     inkscape:window-x="-8"
     inkscape:window-y="-8"
     inkscape:window-maximized="1"
     inkscape:current-layer="g103"
     width="100px" />
  <title
     id="title2">A__33</title>
  <g
     id="g103"
     transform="matrix(1.1097697,0,0,1.1097697,-5.488485,-5.488485)">
    <g
       id="g17965"
       transform="matrix(1.2780439,0,0,1.2780439,-13.902157,-13.208006)">
      <path
         d="m 49.99988,32.80322 a 3.98135,3.98135 0 1 0 -3.98139,-3.98138 3.98135,3.98135 0 0 0 3.98139,3.98138 z"
         id="path6"
         style="fill:#0065fc;fill-opacity:1" />
      <path
         d="m 57.04279,69.24957 c -1.37781,-0.44153 -3.06153,-1.73681 -3.06153,-5.4306 V 39.56921 a 0.65587,0.65587 0 0 0 -0.65588,-0.65588 h -9.66565 a 2.46389,2.46389 0 0 0 -2.46393,2.46387 2.48963,2.48963 0 0 0 1.76135,2.35968 c 1.37775,0.44159 3.06134,1.73687 3.06134,5.4306 V 63.819 c 0,3.69379 -1.68359,4.989 -3.06134,5.4306 a 2.48969,2.48969 0 0 0 -1.76135,2.35968 2.46389,2.46389 0 0 0 2.46393,2.46387 h 12.68054 a 2.46384,2.46384 0 0 0 2.46387,-2.46387 2.48969,2.48969 0 0 0 -1.76135,-2.35971 z"
         id="path8"
         style="fill:#0065fc;fill-opacity:1" />
    </g>
    <circle
       style="opacity:1;fill:none;fill-opacity:1;stroke:#f2f2f2;stroke-width:4.42956;stroke-miterlimit:4;stroke-dasharray:none;stroke-opacity:1"
       id="path17175"
       cx="50"
       cy="50"
       r="42.792301" />
  </g>
  <metadata
     id="metadata105">
    <rdf:RDF>
      <cc:Work
         rdf:about="">
        <dc:title>A__33</dc:title>
      </cc:Work>
    </rdf:RDF>
  </metadata>
</svg>
