<?xml version="1.0" encoding="UTF-8" standalone="no"?>
<svg
   version="1.1"
   x="0px"
   y="0px"
   viewBox="0 0 100 100"
   enable-background="new 0 0 100 100"
   xml:space="preserve"
   id="svg8"
   sodipodi:docname="MapMarker.svg"
   width="100"
   height="100"
   inkscape:version="1.1.1 (3bf5ae0d25, 2021-09-20)"
   xmlns:inkscape="http://www.inkscape.org/namespaces/inkscape"
   xmlns:sodipodi="http://sodipodi.sourceforge.net/DTD/sodipodi-0.dtd"
   xmlns="http://www.w3.org/2000/svg"
   xmlns:svg="http://www.w3.org/2000/svg"><defs
     id="defs12" /><sodipodi:namedview
     id="namedview10"
     pagecolor="#ffffff"
     bordercolor="#666666"
     borderopacity="1.0"
     inkscape:pageshadow="2"
     inkscape:pageopacity="0.0"
     inkscape:pagecheckerboard="0"
     showgrid="false"
     height="100px"
     inkscape:zoom="5.216"
     inkscape:cx="17.254601"
     inkscape:cy="47.066718"
     inkscape:window-width="1600"
     inkscape:window-height="837"
     inkscape:window-x="-8"
     inkscape:window-y="-8"
     inkscape:window-maximized="1"
     inkscape:current-layer="svg8" /><path
     d="m 51.72546,0.46498869 c -19.22988,0 -34.812714,15.58283431 -34.812714,34.81271431 0,7.515125 2.431364,16.135416 6.520476,21.882277 L 51.72546,99.929886 80.017698,57.15998 c 4.089112,-5.746861 6.520476,-14.256635 6.520476,-21.882277 0,-19.22988 -15.582834,-34.81271431 -34.812714,-34.81271431 z m 0,48.07470031 c -7.294092,0 -13.261986,-5.967894 -13.261986,-13.261986 0,-7.294093 5.967894,-13.261987 13.261986,-13.261987 7.294092,0 13.261986,5.967894 13.261986,13.261987 0,7.294092 -5.967894,13.261986 -13.261986,13.261986 z"
     id="path2"
     style="stroke-width:1.10517" /></svg>
