<?xml version="1.0" encoding="UTF-8" standalone="no"?>
<svg
   aria-hidden="true"
   focusable="false"
   data-prefix="fas"
   data-icon="heart"
   class="svg-inline--fa fa-heart"
   role="img"
   viewBox="0 0 512 512"
   version="1.1"
   id="svg4"
   sodipodi:docname="Star-blue.svg"
   inkscape:version="1.1.1 (3bf5ae0d25, 2021-09-20)"
   xmlns:inkscape="http://www.inkscape.org/namespaces/inkscape"
   xmlns:sodipodi="http://sodipodi.sourceforge.net/DTD/sodipodi-0.dtd"
   xmlns="http://www.w3.org/2000/svg"
   xmlns:svg="http://www.w3.org/2000/svg">
  <defs
     id="defs8" />
  <sodipodi:namedview
     id="namedview6"
     pagecolor="#ffffff"
     bordercolor="#666666"
     borderopacity="1.0"
     inkscape:pageshadow="2"
     inkscape:pageopacity="0.0"
     inkscape:pagecheckerboard="0"
     showgrid="false"
     inkscape:zoom="0.51316815"
     inkscape:cx="256.25129"
     inkscape:cy="451.11919"
     inkscape:window-width="1600"
     inkscape:window-height="837"
     inkscape:window-x="-8"
     inkscape:window-y="-8"
     inkscape:window-maximized="1"
     inkscape:current-layer="svg4" />
  <path
     d="m 506.57602,215.52469 -112.11905,109.74132 26.15502,153.63785 a 18.29022,18.29022 0 0 1 -7.31609,18.29022 18.29022,18.29022 0 0 1 -10.79123,3.47514 19.570536,19.570536 0 0 1 -8.4135,-2.01192 L 255.6342,425.49642 117.17723,498.6573 a 18.29022,18.29022 0 0 1 -18.290221,-1.46322 18.29022,18.29022 0 0 1 -7.31608,-18.29022 L 117.54304,324.71731 5.4239894,214.97599 A 18.29022,18.29022 0 0 1 15.666509,183.88261 L 170.40177,161.38564 239.53881,21.648358 a 18.29022,18.29022 0 0 1 32.92239,0 l 69.13703,140.285992 154.73527,22.49697 a 18.29022,18.29022 0 0 1 10.24252,31.09337 z"
     id="path4"
     style="stroke-width:18.2902;fill:#0065fc;fill-opacity:1" />
</svg>
